<svg height="64" width="64" xmlns="http://www.w3.org/2000/svg" data-name="Double right" viewBox="0 0 46.5 38" style="width: 64px; height: 64px;"><path fill="#222" d="M91.6,611a2.9,2.9,0,0,1-1.5-5.4l19.1-13.6L90.1,578.4a2.9,2.9,0,1,1,3-4.9l23.1,16.1a3,3,0,0,1,0,5.1l-23.1,16A2.9,2.9,0,0,1,91.6,611Zm21.6-16.5h0Z" transform="translate(-88.7 -573)"></path><path fill="#222" d="M109.2,611a2.9,2.9,0,0,1-1.5-5.4l19.1-13.6-19.1-13.7a2.9,2.9,0,0,1,3-4.9l23.1,16.1a3,3,0,0,1,0,5.1l-23.1,16A2.9,2.9,0,0,1,109.2,611Zm21.6-16.5h0Z" transform="translate(-88.7 -573)"></path></svg>